<?xml version="1.0" encoding="UTF-8" standalone="no"?>
<!-- Created with Inkscape (http://www.inkscape.org/) -->

<svg
   width="8.137969mm"
   height="9.3071222mm"
   viewBox="0 0 8.137969 9.3071222"
   version="1.1"
   id="svg1611"
   inkscape:version="1.1.1 (3bf5ae0d25, 2021-09-20)"
   sodipodi:docname="Hand_R.svg"
   inkscape:export-filename="C:\Users\iw87ukax\Documents\Workspace\effendi_main\python_code\ui\Hand_R.png"
   inkscape:export-xdpi="2000"
   inkscape:export-ydpi="2000"
   xmlns:inkscape="http://www.inkscape.org/namespaces/inkscape"
   xmlns:sodipodi="http://sodipodi.sourceforge.net/DTD/sodipodi-0.dtd"
   xmlns="http://www.w3.org/2000/svg"
   xmlns:svg="http://www.w3.org/2000/svg">
  <sodipodi:namedview
     id="namedview1613"
     pagecolor="#ffffff"
     bordercolor="#666666"
     borderopacity="1.0"
     inkscape:pageshadow="2"
     inkscape:pageopacity="0.0"
     inkscape:pagecheckerboard="0"
     inkscape:document-units="mm"
     showgrid="false"
     fit-margin-top="0"
     fit-margin-left="0"
     fit-margin-right="0"
     fit-margin-bottom="0"
     inkscape:zoom="11.859035"
     inkscape:cx="2.9934983"
     inkscape:cy="21.882051"
     inkscape:window-width="1920"
     inkscape:window-height="1017"
     inkscape:window-x="3832"
     inkscape:window-y="-8"
     inkscape:window-maximized="1"
     inkscape:current-layer="layer1" />
  <defs
     id="defs1608" />
  <g
     inkscape:label="Ebene 1"
     inkscape:groupmode="layer"
     id="layer1"
     transform="translate(-106.23523,-114.93178)">
    <path
       sodipodi:nodetypes="ccsccssssccscsccccscccccssscccssccscscsscssscc"
       inkscape:connector-curvature="0"
       id="path1898-7"
       d="m 112.01225,124.2372 c 0.0204,-0.22774 -0.035,-0.45548 -0.0438,-0.7095 -0.009,-0.25401 0.0745,-0.42602 0.15024,-0.61848 0.27154,-0.69052 0.31079,-1.25121 0.31079,-1.25121 0.0274,-0.22426 0.0474,-0.70843 0.12918,-1.00916 0.0876,-0.30074 0.14398,-0.54549 0.31916,-0.76155 0.17519,-0.21606 0.65402,-0.7387 0.85257,-0.9606 0.19854,-0.2219 0.60438,-0.65986 0.63358,-0.91679 0.0292,-0.25694 -0.0117,-0.2949 -0.11095,-0.34453 -0.0993,-0.0496 -0.12555,-0.0642 -0.25694,-0.0817 -0.13139,-0.0175 -0.77957,0.73577 -0.77957,0.73577 -0.3897,0.392 -0.75813,0.8559 -0.85423,0.84827 -0.13768,-0.0109 -0.22333,-0.0449 -0.25843,-0.19767 -0.0453,-0.19723 0.17755,-1.03228 0.26426,-1.43694 0.0867,-0.40465 0.35924,-1.25525 0.27665,-1.55255 -0.0826,-0.2973 -0.0661,-0.3262 -0.16929,-0.39227 -0.10323,-0.0661 -0.16104,-0.0991 -0.27252,-0.0578 -0.11149,0.0413 -0.18994,0.0702 -0.22297,0.20646 -0.033,0.13626 -0.25601,0.99925 -0.33446,1.54842 -0.0785,0.54918 -0.15278,1.14171 -0.31795,1.25319 -0.16516,0.11149 -0.14864,0.0805 -0.21471,0.031 -0.0994,-0.0745 0.10736,-0.87124 0.0991,-1.38326 -0.008,-0.51201 -0.0165,-1.0777 -0.008,-1.20157 0.008,-0.12388 0.0899,-0.60773 -0.0124,-0.8506 -0.033,-0.0785 -0.14041,-0.19875 -0.38401,-0.20233 -0.11257,-0.002 -0.24775,0.1342 -0.26633,0.192 -0.0392,0.12206 -0.192,1.92624 -0.192,2.16573 0,0.23949 -0.0537,0.92906 -0.1693,1.09009 -0.11561,0.16104 -0.0825,0.14824 -0.14364,0.15912 -0.0825,0.0147 -0.15432,-0.13706 -0.208,-0.2568 -0.0537,-0.11974 -0.29044,-1.27525 -0.30695,-1.4528 -0.0165,-0.17756 -0.0681,-1.09629 -0.17136,-1.22016 -0.10323,-0.12388 -0.17755,-0.14865 -0.31794,-0.12388 -0.14039,0.0248 -0.26014,0.0413 -0.31795,0.18168 -0.0578,0.14039 -0.0537,1.10248 0.033,1.78379 0.0867,0.6813 0.39227,1.73423 0.30143,2.33296 -0.0908,0.59872 -0.0784,0.85886 -0.28491,0.90015 -0.20646,0.0413 -0.24362,0.0206 -0.35923,-0.0908 -0.11562,-0.11149 -0.57395,-0.74738 -0.90016,-0.92906 -0.3262,-0.18168 -0.49543,-0.25086 -0.70195,-0.23949 -0.22503,0.0124 -0.40732,0.0929 -0.46659,0.17343 -0.1251,0.16987 -0.10529,0.17548 -0.0867,0.24774 0.0293,0.11375 0.65653,0.47898 1.16029,1.119 0.50375,0.64001 0.71847,1.02402 1.23048,1.46997 0.51201,0.44594 0.60285,0.17755 0.6813,0.54504 0.0785,0.3675 -0.008,1.25939 -0.008,1.25939"
       style="display:inline;fill:#f0d2b1;fill-opacity:1;stroke:none;stroke-width:0.186863;stroke-linecap:butt;stroke-linejoin:miter;stroke-miterlimit:4;stroke-dasharray:none;stroke-opacity:1" />
  </g>
</svg>
