<?xml version="1.0" encoding="UTF-8" standalone="no"?>
<!-- Created with Inkscape (http://www.inkscape.org/) -->

<svg
   width="8.1382332mm"
   height="9.3071222mm"
   viewBox="0 0 8.1382333 9.3071222"
   version="1.1"
   id="svg1417"
   inkscape:export-filename="C:\Users\iw87ukax\Documents\Workspace\effendi_main\python_code\ui\Hand_L.png"
   inkscape:export-xdpi="1000"
   inkscape:export-ydpi="1000"
   inkscape:version="1.1.1 (3bf5ae0d25, 2021-09-20)"
   sodipodi:docname="Hand_L.svg"
   xmlns:inkscape="http://www.inkscape.org/namespaces/inkscape"
   xmlns:sodipodi="http://sodipodi.sourceforge.net/DTD/sodipodi-0.dtd"
   xmlns="http://www.w3.org/2000/svg"
   xmlns:svg="http://www.w3.org/2000/svg">
  <sodipodi:namedview
     id="namedview1419"
     pagecolor="#ffffff"
     bordercolor="#666666"
     borderopacity="1.0"
     inkscape:pageshadow="2"
     inkscape:pageopacity="0.0"
     inkscape:pagecheckerboard="0"
     inkscape:document-units="mm"
     showgrid="false"
     fit-margin-top="0"
     fit-margin-left="0"
     fit-margin-right="0"
     fit-margin-bottom="0"
     inkscape:zoom="5.9295174"
     inkscape:cx="31.790108"
     inkscape:cy="34.825769"
     inkscape:window-width="1920"
     inkscape:window-height="1017"
     inkscape:window-x="3832"
     inkscape:window-y="-8"
     inkscape:window-maximized="1"
     inkscape:current-layer="layer1" />
  <defs
     id="defs1414" />
  <g
     inkscape:label="Ebene 1"
     inkscape:groupmode="layer"
     id="layer1"
     transform="translate(-78.790312,-133.13741)">
    <path
       sodipodi:nodetypes="ccsccssssccscsccccscccccssscccssccscscsscssscc"
       inkscape:connector-curvature="0"
       id="path1898"
       d="m 81.151259,142.44283 c -0.02044,-0.22774 0.03504,-0.45548 0.0438,-0.7095 0.0088,-0.25401 -0.07452,-0.42602 -0.150238,-0.61848 -0.271535,-0.69052 -0.310788,-1.25121 -0.310788,-1.25121 -0.0274,-0.22426 -0.04742,-0.70843 -0.129176,-1.00916 -0.08759,-0.30074 -0.143982,-0.54549 -0.319166,-0.76155 -0.175184,-0.21606 -0.654021,-0.7387 -0.852563,-0.9606 -0.198542,-0.2219 -0.604385,-0.65986 -0.633582,-0.91679 -0.0292,-0.25694 0.01168,-0.2949 0.110949,-0.34453 0.09927,-0.0496 0.125549,-0.0642 0.256937,-0.0817 0.131388,-0.0175 0.779569,0.73577 0.779569,0.73577 0.389702,0.392 0.758136,0.8559 0.85423,0.84827 0.137681,-0.0109 0.223336,-0.0449 0.258434,-0.19767 0.04531,-0.19723 -0.177553,-1.03228 -0.264265,-1.43694 -0.08671,-0.40465 -0.359234,-1.25525 -0.276651,-1.55255 0.08258,-0.2973 0.06607,-0.3262 0.169294,-0.39227 0.103228,-0.0661 0.161036,-0.0991 0.272522,-0.0578 0.111487,0.0413 0.189941,0.0702 0.222973,0.20646 0.03303,0.13626 0.256007,0.99925 0.33446,1.54842 0.07845,0.54918 0.152779,1.14171 0.317944,1.25319 0.165165,0.11149 0.148648,0.0805 0.214714,0.031 0.09937,-0.0745 -0.107357,-0.87124 -0.0991,-1.38326 0.0083,-0.51201 0.01652,-1.0777 0.0083,-1.20157 -0.0083,-0.12388 -0.08987,-0.60773 0.01239,-0.8506 0.03303,-0.0785 0.140408,-0.19875 0.384009,-0.20233 0.112575,-0.002 0.247748,0.1342 0.266329,0.192 0.03923,0.12206 0.192005,1.92624 0.192005,2.16573 0,0.23949 0.05368,0.92906 0.169294,1.09009 0.115615,0.16104 0.08253,0.14824 0.143646,0.15912 0.08249,0.0147 0.154317,-0.13706 0.207995,-0.2568 0.05368,-0.11974 0.290438,-1.27525 0.306955,-1.4528 0.01652,-0.17756 0.06813,-1.09629 0.171359,-1.22016 0.103228,-0.12388 0.177552,-0.14865 0.317943,-0.12388 0.14039,0.0248 0.260135,0.0413 0.317943,0.18168 0.05781,0.14039 0.05368,1.10248 -0.03303,1.78379 -0.08671,0.6813 -0.392267,1.73423 -0.301427,2.33296 0.09084,0.59872 0.07845,0.85886 0.28491,0.90015 0.206456,0.0413 0.243619,0.0206 0.359234,-0.0908 0.115616,-0.11149 0.573949,-0.74738 0.90015,-0.92906 0.326201,-0.18168 0.495437,-0.25086 0.701952,-0.23949 0.225037,0.0124 0.407322,0.0929 0.466592,0.17343 0.125097,0.16987 0.105292,0.17548 0.08671,0.24774 -0.02925,0.11375 -0.656531,0.47898 -1.160285,1.119 -0.503753,0.64001 -0.718469,1.02402 -1.23048,1.46997 -0.512012,0.44594 -0.602853,0.17755 -0.681306,0.54504 -0.07845,0.3675 0.0083,1.25939 0.0083,1.25939"
       style="display:inline;fill:#f0d2b1;fill-opacity:1;stroke:none;stroke-width:0.186863;stroke-linecap:butt;stroke-linejoin:miter;stroke-miterlimit:4;stroke-dasharray:none;stroke-opacity:1" />
  </g>
</svg>
